<?xml version="1.0" encoding="UTF-8" standalone="no"?>
<svg
   width="480"
   height="480"
   viewBox="0 0 480 480"
   version="1.1"
   id="svg1"
   sodipodi:docname="Nuget.svg"
   inkscape:version="1.4.2 (f4327f4, 2025-05-13)"
   xmlns:inkscape="http://www.inkscape.org/namespaces/inkscape"
   xmlns:sodipodi="http://sodipodi.sourceforge.net/DTD/sodipodi-0.dtd"
   xmlns:xlink="http://www.w3.org/1999/xlink"
   xmlns="http://www.w3.org/2000/svg"
   xmlns:svg="http://www.w3.org/2000/svg"
   xmlns:rdf="http://www.w3.org/1999/02/22-rdf-syntax-ns#"
   xmlns:cc="http://creativecommons.org/ns#"
   xmlns:dc="http://purl.org/dc/elements/1.1/">
  <sodipodi:namedview
     id="namedview1"
     pagecolor="#505050"
     bordercolor="#eeeeee"
     borderopacity="1"
     inkscape:showpageshadow="0"
     inkscape:pageopacity="0"
     inkscape:pagecheckerboard="0"
     inkscape:deskcolor="#505050"
     inkscape:zoom="1.1396484"
     inkscape:cx="116.70266"
     inkscape:cy="182.95116"
     inkscape:window-width="2560"
     inkscape:window-height="1369"
     inkscape:window-x="-8"
     inkscape:window-y="-8"
     inkscape:window-maximized="1"
     inkscape:current-layer="Global/Logo" />
  <!-- Generator: Sketch 47.1 (45422) - http://www.bohemiancoding.com/sketch -->
  <title
     id="title1">nuget</title>
  <desc
     id="desc1">Created with Sketch.</desc>
  <defs
     id="defs1">
    <polygon
       id="path-1"
       points="84.652158,3.7002935 84.652158,88.341913 0,88.341913 0,46.021103 0,3.7002935 " />
  </defs>
  <g
     id="Symbols"
     stroke="none"
     stroke-width="1"
     fill="none"
     fill-rule="evenodd">
    <g
       id="nuget">
      <g
         id="Global/Logo"
         transform="translate(0,6)">
        <path
           d="m 350.89836,425.28002 c -43.15438,0 -78.14284,-34.99196 -78.14284,-78.15069 0,-43.13918 34.98846,-78.15069 78.14284,-78.15069 43.15437,0 78.14283,35.01151 78.14283,78.15069 0,43.15873 -34.98846,78.15069 -78.14283,78.15069 M 195.02294,246.15865 c -26.97882,0 -48.83927,-21.88221 -48.83927,-48.8442 0,-26.98151 21.86045,-48.84417 48.83927,-48.84417 26.97881,0 48.83928,21.86266 48.83928,48.84417 0,26.96199 -21.86047,48.8442 -48.83928,48.8442 M 354.35618,93.686645 h -130.4204 c -66.46048,0 -120.37903,53.923975 -120.37903,120.410675 v 130.41396 c 0,66.50624 53.91855,120.39115 120.37903,120.39115 h 130.4204 c 66.49955,0 120.37904,-53.88491 120.37904,-120.39115 V 214.09732 c 0,-66.4867 -53.87949,-120.410675 -120.37904,-120.410675"
           id="Fill-12"
           fill="#004880"
           fill-rule="evenodd"
           style="stroke-width:0.923105;fill:#c0c0c0;fill-opacity:1" />
        <mask
           id="mask-2"
           fill="#ffffff">
          <use
             xlink:href="#path-1"
             id="use1" />
        </mask>
        <g
           id="Clip-15"
           style="display:inline"
           transform="matrix(0.94380901,0,0,0.94380901,0,0.20792314)" />
        <path
           d="m 84.652158,46.011579 c 0,23.387509 -18.962084,42.330334 -42.326079,42.330334 C 18.94092,88.341913 0,69.399088 0,46.011579 0,22.645234 18.94092,3.6812449 42.326079,3.6812449 c 23.363995,0 42.326079,18.9639891 42.326079,42.3303341"
           id="Fill-14"
           fill="#004880"
           fill-rule="evenodd"
           mask="url(#mask-2)"
           transform="matrix(0.92310506,0,0,0.92310506,5.2647815,5.3992344)"
           style="fill:#c0c0c0;fill-opacity:1" />
      </g>
    </g>
  </g>
  <metadata
     id="metadata1">
    <rdf:RDF>
      <cc:Work
         rdf:about="">
        <dc:title>nuget</dc:title>
      </cc:Work>
    </rdf:RDF>
  </metadata>
</svg>
